<?xml version="1.0" encoding="UTF-8"?>
<svg xmlns="http://www.w3.org/2000/svg" xmlns:xlink="http://www.w3.org/1999/xlink" viewBox="0 0 500 500">
  <defs>
    <style>
      .cls-1 {
        fill: #f19d4c;
      }

      .cls-2 {
        fill: #fcebcb;
      }

      .cls-3 {
        clip-path: url(#clippath-1);
      }

      .cls-4 {
        fill: #a65820;
      }

      .cls-5 {
        clip-path: url(#clippath-2);
      }

      .cls-6 {
        clip-path: url(#clippath);
      }
    </style>
    <clipPath id="clippath">
      <path class="cls-1" d="M406.88,232.29c-29.9,11.54-41.26,49.48-29.51,85.36,6.27,25.97,6.07,31.24-12.45,40.32v31.51c8.98-1.54,29.64-8.46,43.12-32.07,10.56-19.01-8.5-57.81-4.96-77.79,4.73-14.72,12.88-18.68,13.39-18.91,18.47-6.42,8.96-34.5-9.6-28.42Z"/>
    </clipPath>
    <clipPath id="clippath-1">
      <path class="cls-1" d="M243.92,81.49c-66.83,0-121.01,53.78-121.01,120.12v26.87c37.75,13.85,78.51,21.42,121.01,21.42s83.26-7.57,121.01-21.42v-26.87c0-66.34-54.18-120.12-121.01-120.12Z"/>
    </clipPath>
    <clipPath id="clippath-2">
      <path class="cls-1" d="M122.91,241.29v150.66c0,18.41,54.18,33.33,121.01,33.33s121.01-14.92,121.01-33.33v-150.66c-38.75,13.67-79.35,20.61-121.01,20.61s-82.26-6.94-121.01-20.61Z"/>
    </clipPath>
  </defs>
  <g id="leg_and_tail">
    <path class="cls-1" d="M210.59,463.94c13.22.08,17.71-16.57,18.25-38.93-15.97-.55-30.97-1.95-44.38-4.04,3.21,31.47,10.81,41.37,26.13,42.97Z"/>
    <path class="cls-1" d="M280.81,463.94c15.41-1.61,23.01-11.61,26.19-43.56-13.33,2.25-28.37,3.8-44.45,4.49.52,22.43,5.01,39.15,18.25,39.07Z"/>
    <g>
      <path class="cls-1" d="M406.88,232.29c-29.9,11.54-41.26,49.48-29.51,85.36,6.27,25.97,6.07,31.24-12.45,40.32v31.51c8.98-1.54,29.64-8.46,43.12-32.07,10.56-19.01-8.5-57.81-4.96-77.79,4.73-14.72,12.88-18.68,13.39-18.91,18.47-6.42,8.96-34.5-9.6-28.42Z"/>
      <g class="cls-6">
        <ellipse class="cls-2" cx="411.74" cy="246.71" rx="26.2" ry="30.21"/>
        <path class="cls-4" d="M370.3,254.38c2.54,4.87,6.54,8.93,11.24,11.74,3.6,2.14,8.94.93,10.95-2.87s.97-8.66-2.87-10.95c-.4-.24-.8-.48-1.19-.75-.23-.15-.47-.32-.69-.48l.73.56c-.66-.19-1.58-1.41-2.06-1.91-.26-.27-.5-.56-.75-.84-1.2-1.34.57.94.05.06s-1.11-1.72-1.59-2.65c-1.94-3.72-7.44-5.13-10.95-2.87-3.79,2.44-4.94,6.97-2.87,10.95h0Z"/>
        <path class="cls-4" d="M367.37,296.16c5.71.07,11.41-.15,17.1-.65,4.3-.38,8-3.4,8-8,0-4.03-3.67-8.38-8-8-5.69.51-11.39.72-17.1.65-10.3-.13-10.31,15.87,0,16h0Z"/>
        <path class="cls-4" d="M408.12,313.69c-3.29,2.2-6.89,3.71-10.28,4.04-5.64.56-8.5,4.64-7.71,10.13.17,1.2.68,2.33,1.35,3.34,2.38,3.6,7.07,5.14,10.95,2.87,3.58-2.09,5.26-7.33,2.87-10.95l.26.48-7.71,10.13c6.6-.65,12.81-2.51,18.36-6.23,3.59-2.4,5.15-7.05,2.87-10.95-2.08-3.56-7.34-5.28-10.95-2.87h0Z"/>
        <path class="cls-4" d="M414.41,352.56c-4.18-.03-7.8-.87-11.81-2.52s-8.79,1.78-9.84,5.59c-1.26,4.59,1.57,8.19,5.59,9.84,5.09,2.09,10.57,3.05,16.07,3.09,4.32.03,8-3.7,8-8s-3.66-7.97-8-8h0Z"/>
        <path class="cls-4" d="M363.48,355.3c3.67-.2,7.53,9.5,8.62,11.94,2.63,5.86,5.48,12.3,6.23,18.73.5,4.29,3.32,8,8,8,3.94,0,8.5-3.68,8-8-1.2-10.32-5.05-20.23-9.68-29.49-3.9-7.8-11.43-17.71-21.17-17.18-10.24.55-10.31,16.56,0,16h0Z"/>
      </g>
    </g>
  </g>
  <g id="body">
    <g>
      <path class="cls-1" d="M243.92,81.49c-66.83,0-121.01,53.78-121.01,120.12v26.87c37.75,13.85,78.51,21.42,121.01,21.42s83.26-7.57,121.01-21.42v-26.87c0-66.34-54.18-120.12-121.01-120.12Z"/>
      <g class="cls-3">
        <path class="cls-4" d="M116.56,175.42c2.03-.33,4.47.74,6.42,1.18,2.48.56,4.97,1.06,7.48,1.49,4.77.82,9.6,1.44,14.42,1.83,9.84.8,19.7.51,29.5-.69,4.29-.53,8-3.3,8-8,0-3.91-3.68-8.53-8-8-10.43,1.28-20.93,1.52-31.4.52s-20.54-5.4-30.67-3.76c-4.27.69-6.64,6-5.59,9.84,1.25,4.54,5.56,6.28,9.84,5.59h0Z"/>
        <path class="cls-4" d="M113.82,215.93c4.69-.65,10.45,1.98,15.13,2.58,5.27.68,10.55.84,15.85.83,10.08-.02,19.92-.27,29.16-4.75s1.16-18.29-8.08-13.82c-7.81,3.78-18.22,2.74-26.65,2.52-10.04-.27-19.67-4.18-29.67-2.79-4.28.59-6.62,6.07-5.59,9.84,1.27,4.61,5.54,6.18,9.84,5.59h0Z"/>
        <path class="cls-4" d="M369.92,155.98c-17.02,5.27-34.56,4.54-51.17-1.84-4.03-1.55-8.78,1.71-9.84,5.59-1.24,4.51,1.54,8.29,5.59,9.84,19.03,7.31,40.22,7.87,59.68,1.84,9.81-3.04,5.62-18.49-4.25-15.43h0Z"/>
        <path class="cls-4" d="M370.04,198.03c-6.4,1.2-12.83,1.88-19.34,2.03s-10.97.29-15.9-3.84c-7.85-6.56-19.23,4.7-11.31,11.31,7.37,6.16,13.78,8.5,23.46,8.55s18.33-.95,27.36-2.64c10.11-1.89,5.83-17.31-4.25-15.43h0Z"/>
        <path class="cls-4" d="M210.44,80.2c-1.47,11.46,1.72,23.38,8.72,32.57,2.61,3.43,6.9,5.24,10.95,2.87,3.38-1.98,5.5-7.49,2.87-10.95-5.56-7.31-7.7-15.4-6.53-24.5.55-4.29-4.07-8-8-8-4.78,0-7.45,3.69-8,8h0Z"/>
        <path class="cls-4" d="M271.55,82.29c1.45,8.55,1.32,17.62-5.77,23.57-7.9,6.62,3.47,17.89,11.31,11.31,11.63-9.75,12.25-25.27,9.89-39.14-.73-4.26-5.97-6.65-9.84-5.59-4.51,1.24-6.31,5.57-5.59,9.84h0Z"/>
      </g>
    </g>
    <g>
      <path class="cls-1" d="M122.91,241.29v150.66c0,18.41,54.18,33.33,121.01,33.33s121.01-14.92,121.01-33.33v-150.66c-38.75,13.67-79.35,20.61-121.01,20.61s-82.26-6.94-121.01-20.61Z"/>
      <g class="cls-5">
        <ellipse class="cls-2" cx="244.14" cy="393.42" rx="71.4" ry="78.27"/>
        <path class="cls-4" d="M103.77,305.54c21.82,8.91,46.73,9.34,68.89,1.35,9.61-3.47,5.47-18.93-4.25-15.43-19.85,7.15-40.87,6.62-60.39-1.35-4-1.63-8.79,1.77-9.84,5.59-1.26,4.58,1.57,8.2,5.59,9.84h0Z"/>
        <path class="cls-4" d="M105.51,361.02c11.17,1.57,22.03,2.86,33.26,1.21,9.67-1.43,20.02-3.22,27.34-10.21s-3.87-18.43-11.31-11.31c-4.66,4.45-13.7,5.22-19.84,6.04-8.37,1.12-16.9.02-25.19-1.15-4.27-.6-8.59,1.04-9.84,5.59-1.03,3.75,1.28,9.23,5.59,9.84h0Z"/>
        <path class="cls-4" d="M364.19,288.99c-12.97.62-26.89,1.49-38.71-4.86-9.07-4.88-17.16,8.93-8.08,13.82,14.51,7.8,30.74,7.82,46.78,7.05,10.25-.49,10.31-16.49,0-16h0Z"/>
        <path class="cls-4" d="M365.25,332.19c-13.5.91-27.69,1.97-39.3-6.2-8.44-5.94-16.44,7.93-8.08,13.82,13.89,9.78,31.16,9.48,47.37,8.39,10.22-.69,10.3-16.69,0-16h0Z"/>
      </g>
    </g>
  </g>
  <g id="mouth">
    <path d="M260.45,201.81c-4.65.52-1.46,6.16-8.2,6.3-4.21,0-4.49-.86-4.71-1.56-.42-1.32-.38-4.24-.21-5.89,0-.08,0-.15,0-.23,3.4-1.55,6.92-4.87,7.27-7.67-2.14-6.09-17.58-5.7-20.32,0-.92,1.6,3,5.84,6.64,7.67,0,.08,0,.15,0,.23.17,1.65.21,4.57-.21,5.89-.22.7-.5,1.56-4.71,1.56-6.74-.14-3.55-5.78-8.2-6.3-7.83,2.48,1.01,12.94,8.2,12.3,3.7.36,6.33-.63,8.12-2.38,1.78,1.75,4.42,2.74,8.12,2.38,7.19.64,16.03-9.82,8.2-12.3Z"/>
  </g>
  <g id="ear-out">
    <path class="cls-1" d="M201.52,89.08h.01s-40.49-39.67-55.82-28.97c-15.33,10.69-6.21,80.76-6.21,80.76h0c13.97-23.62,35.84-42.07,62.01-51.78Z"/>
    <path class="cls-1" d="M349.58,143.02h0s12.14-79-9.6-82.92c-21.74-3.92-49.83,30.47-49.83,30.47h0c25.25,10.37,46.19,28.98,59.42,52.45Z"/>
  </g>
  <g id="ear-in">
    <path class="cls-2" d="M341.34,130.35c2-12.71,7.35-52.48-2.96-57.41-10.07-4.81-27.89,16.64-34.03,24.58,14.5,8.31,27.09,19.52,36.99,32.83Z"/>
    <path class="cls-2" d="M186.56,95.82c-8.19-8.43-28.37-27.8-36.38-22.89-8.34,5.12-4.66,43.18-3.08,56.62,10.5-13.89,23.97-25.44,39.46-33.73Z"/>
  </g>
</svg>