<?xml version="1.0" encoding="UTF-8"?>
<svg xmlns="http://www.w3.org/2000/svg" xmlns:xlink="http://www.w3.org/1999/xlink" viewBox="0 0 500 500">
  <defs>
    <style>
      .cls-1 {
        fill: #feedcc;
      }

      .cls-2 {
        fill: #fff;
      }

      .cls-3 {
        fill: #5f4a48;
      }

      .cls-4 {
        fill: #f6b59e;
      }

      .cls-5 {
        clip-path: url(#clippath);
      }
    </style>
    <clipPath id="clippath">
      <path class="cls-1" d="M122.91,241.29v150.66c0,18.41,54.18,33.33,121.01,33.33s121.01-14.92,121.01-33.33v-150.66c-38.75,13.67-79.35,20.61-121.01,20.61s-82.26-6.94-121.01-20.61Z"/>
    </clipPath>
  </defs>
  <g id="leg_and_tail">
    <path class="cls-3" d="M210.59,463.94c13.22.08,17.71-16.57,18.25-38.93-15.97-.55-30.97-1.95-44.38-4.04,3.21,31.47,10.81,41.37,26.13,42.97Z"/>
    <path class="cls-3" d="M280.81,463.94c15.41-1.61,23.01-11.61,26.19-43.56-13.33,2.25-28.37,3.8-44.45,4.49.52,22.43,5.01,39.15,18.25,39.07Z"/>
    <path class="cls-3" d="M406.88,232.29c-29.9,11.54-41.26,49.48-29.51,85.36,6.27,25.97,6.07,31.24-12.45,40.32v31.51c8.98-1.54,29.64-8.46,43.12-32.07,10.56-19.01-8.5-57.81-4.96-77.79,4.73-14.72,12.88-18.68,13.39-18.91,18.47-6.42,8.96-34.5-9.6-28.42Z"/>
  </g>
  <g id="body">
    <path class="cls-1" d="M243.92,81.49c-66.83,0-121.01,53.78-121.01,120.12v26.87c37.75,13.85,78.51,21.42,121.01,21.42s83.26-7.57,121.01-21.42v-26.87c0-66.34-54.18-120.12-121.01-120.12Z"/>
    <g>
      <path class="cls-1" d="M122.91,241.29v150.66c0,18.41,54.18,33.33,121.01,33.33s121.01-14.92,121.01-33.33v-150.66c-38.75,13.67-79.35,20.61-121.01,20.61s-82.26-6.94-121.01-20.61Z"/>
      <g class="cls-5">
        <circle class="cls-3" cx="113.03" cy="322.97" r="59.88"/>
        <circle class="cls-3" cx="373.18" cy="322.97" r="59.88"/>
      </g>
    </g>
    <path class="cls-3" d="M334.1,184.5c0,27.76-40.5,53.47-89.96,53.47s-89.15-25.71-89.15-53.47,40.09-50.26,89.55-50.26,89.55,22.5,89.55,50.26Z"/>
  </g>
  <g id="mouth">
    <path class="cls-2" d="M260.45,201.81c-4.65.52-1.46,6.16-8.2,6.3-4.21,0-4.49-.86-4.71-1.56-.42-1.32-.38-4.24-.21-5.89,0-.08,0-.15,0-.23,3.4-1.55,6.92-4.87,7.27-7.67-2.14-6.09-17.58-5.7-20.32,0-.92,1.6,3,5.84,6.64,7.67,0,.08,0,.15,0,.23.17,1.65.21,4.57-.21,5.89-.22.7-.5,1.56-4.71,1.56-6.74-.14-3.55-5.78-8.2-6.3-7.83,2.48,1.01,12.94,8.2,12.3,3.7.36,6.33-.63,8.12-2.38,1.78,1.75,4.42,2.74,8.12,2.38,7.19.64,16.03-9.82,8.2-12.3Z"/>
  </g>
  <g id="ear-out">
    <path class="cls-3" d="M201.52,89.08h.01s-40.49-39.67-55.82-28.97c-15.33,10.69-6.21,80.76-6.21,80.76h0c13.97-23.62,35.84-42.07,62.01-51.78Z"/>
    <path class="cls-3" d="M349.58,143.02h0s12.14-79-9.6-82.92c-21.74-3.92-49.83,30.47-49.83,30.47h0c25.25,10.37,46.19,28.98,59.42,52.45Z"/>
  </g>
  <g id="ear-in">
    <path class="cls-4" d="M341.34,130.35c2-12.71,7.35-52.48-2.96-57.41-10.07-4.81-27.89,16.64-34.03,24.58,14.5,8.31,27.09,19.52,36.99,32.83Z"/>
    <path class="cls-4" d="M186.56,95.82c-8.19-8.43-28.37-27.8-36.38-22.89-8.34,5.12-4.66,43.18-3.08,56.62,10.5-13.89,23.97-25.44,39.46-33.73Z"/>
  </g>
</svg>