<?xml version="1.0" encoding="UTF-8"?>
<svg xmlns="http://www.w3.org/2000/svg" xmlns:xlink="http://www.w3.org/1999/xlink" viewBox="0 0 500 500">
  <defs>
    <style>
      .cls-1 {
        fill: #97a1ae;
      }

      .cls-2 {
        clip-path: url(#clippath-1);
      }

      .cls-3 {
        fill: #5a5a5f;
      }

      .cls-4 {
        fill: #1a1a1a;
      }

      .cls-5 {
        fill: #78808a;
      }

      .cls-6 {
        clip-path: url(#clippath-2);
      }

      .cls-7 {
        clip-path: url(#clippath);
      }
    </style>
    <clipPath id="clippath">
      <path class="cls-1" d="M406.88,232.29c-29.9,11.54-41.26,49.48-29.51,85.36,6.27,25.97,6.07,31.24-12.45,40.32v31.51c8.98-1.54,29.64-8.46,43.12-32.07,10.56-19.01-8.5-57.81-4.96-77.79,4.73-14.72,12.88-18.68,13.39-18.91,18.47-6.42,8.96-34.5-9.6-28.42Z"/>
    </clipPath>
    <clipPath id="clippath-1">
      <path class="cls-1" d="M243.92,81.49c-66.83,0-121.01,53.78-121.01,120.12v26.87c37.75,13.85,78.51,21.42,121.01,21.42s83.26-7.57,121.01-21.42v-26.87c0-66.34-54.18-120.12-121.01-120.12Z"/>
    </clipPath>
    <clipPath id="clippath-2">
      <path class="cls-1" d="M122.91,241.29v150.66c0,18.41,54.18,33.33,121.01,33.33s121.01-14.92,121.01-33.33v-150.66c-38.75,13.67-79.35,20.61-121.01,20.61s-82.26-6.94-121.01-20.61Z"/>
    </clipPath>
  </defs>
  <g id="leg_and_tail">
    <path class="cls-1" d="M210.59,463.94c13.22.08,17.71-16.57,18.25-38.93-15.97-.55-30.97-1.95-44.38-4.04,3.21,31.47,10.81,41.37,26.13,42.97Z"/>
    <path class="cls-1" d="M280.81,463.94c15.41-1.61,23.01-11.61,26.19-43.56-13.33,2.25-28.37,3.8-44.45,4.49.52,22.43,5.01,39.15,18.25,39.07Z"/>
    <g>
      <path class="cls-1" d="M406.88,232.29c-29.9,11.54-41.26,49.48-29.51,85.36,6.27,25.97,6.07,31.24-12.45,40.32v31.51c8.98-1.54,29.64-8.46,43.12-32.07,10.56-19.01-8.5-57.81-4.96-77.79,4.73-14.72,12.88-18.68,13.39-18.91,18.47-6.42,8.96-34.5-9.6-28.42Z"/>
      <g class="cls-7">
        <path class="cls-1" d="M372.7,257.5c12.88,6.88,26.41,16.26,41.12,18.41,4.27.62,8.6-1.06,9.84-5.59,1.03-3.76-1.29-9.21-5.59-9.84-13.38-1.95-25.57-10.54-37.29-16.8-9.08-4.85-17.17,8.96-8.08,13.82h0Z"/>
        <path class="cls-5" d="M374.22,246.49c.08,21.14,20.21,36.77,40.59,36.9,10.3.06,10.31-15.94,0-16-11.57-.07-24.54-8.6-24.59-20.9-.04-10.29-16.04-10.31-16,0h0Z"/>
        <path class="cls-5" d="M361.16,289.6c4.29,7.68,13.98,11.12,22.05,13.13,9.25,2.3,18.89,2.69,28.37,2.5,10.28-.2,10.32-16.2,0-16-6.9.14-13.91.12-20.7-1.18-4.32-.83-13.53-2.27-15.91-6.52-5.02-8.99-18.84-.93-13.82,8.08h0Z"/>
        <path class="cls-5" d="M357.84,321.76c9.79,6.36,19.64,10.66,31.33,11.89,11.05,1.16,22.27-.13,33.04,3.08,9.89,2.94,14.12-12.5,4.25-15.43-10.44-3.1-21.24-2.69-32-3.25s-19.45-4.19-28.55-10.1c-8.66-5.63-16.69,8.22-8.08,13.82h0Z"/>
        <path class="cls-5" d="M365.39,351.64c5.32,2.42,9.99,5.64,13.7,10.21s5.21,10.23,8.23,15.22c3.21,5.31,8.03,9,13.64,11.49,6.69,2.97,13.86,5.92,21.31,5.42,10.22-.69,10.3-16.7,0-16-5.63.38-11.92-2.21-16.77-4.99-4.81-2.75-6.06-7.73-8.38-12.45-4.91-9.98-13.56-18.13-23.65-22.72-3.93-1.79-8.61-1.13-10.95,2.87-2.01,3.43-1.08,9.15,2.87,10.95h0Z"/>
        <path class="cls-1" d="M231.48,107.47c2.74,14.64,5.67,29.24,8.8,43.8,2.16,10.06,17.59,5.8,15.43-4.25-3.13-14.56-6.06-29.16-8.8-43.8-1.89-10.11-17.31-5.83-15.43,4.25h0Z"/>
      </g>
    </g>
  </g>
  <g id="body">
    <g>
      <path class="cls-1" d="M243.92,81.49c-66.83,0-121.01,53.78-121.01,120.12v26.87c37.75,13.85,78.51,21.42,121.01,21.42s83.26-7.57,121.01-21.42v-26.87c0-66.34-54.18-120.12-121.01-120.12Z"/>
      <g class="cls-2">
        <path class="cls-5" d="M240.95,94.85c1.2,8.11,1.27,16.22.39,24.37-.41,3.83,5.59,3.8,6,0,.94-8.72.68-17.29-.61-25.96-.57-3.81-6.35-2.19-5.79,1.6h0Z"/>
        <path class="cls-5" d="M199.06,119.33c1.57.3,3.21,5.2,3.91,6.57,1.27,2.48,2.52,4.96,3.76,7.45,1.73,3.45,6.9.42,5.18-3.03s-3.57-7.1-5.4-10.64c-1.36-2.64-2.66-5.54-5.86-6.14-3.77-.71-5.39,5.07-1.6,5.79h0Z"/>
        <path class="cls-5" d="M291.61,108.27c-3.01,3.58-5.02,7.8-8.29,11.2s-7.38,6.17-11.8,8.19c-3.51,1.6-.46,6.78,3.03,5.18,4.48-2.05,8.58-4.79,12.12-8.22,3.74-3.63,5.89-8.17,9.18-12.1,2.47-2.94-1.76-7.2-4.24-4.24h0Z"/>
        <path class="cls-5" d="M140.84,197.24c7.57,1.68,15.04,3.7,22.42,6.08,3.68,1.19,5.26-4.61,1.6-5.79-7.38-2.37-14.85-4.4-22.42-6.08-3.76-.83-5.37,4.95-1.6,5.79h0Z"/>
        <path class="cls-5" d="M139.29,220.19c9.52,3.75,19.37,6,29.55,6.93,3.84.35,3.82-5.65,0-6-9.65-.88-18.94-3.16-27.95-6.71-3.59-1.42-5.15,4.38-1.6,5.79h0Z"/>
        <path class="cls-5" d="M341.9,189.72c-6.94,4.53-14.55,7.26-22.84,7.95-3.82.32-3.85,6.32,0,6,9.32-.78,18.02-3.65,25.86-8.77,3.22-2.1.22-7.3-3.03-5.18h0Z"/>
        <path class="cls-5" d="M339.41,206.8c-6.01,3.25-12.45,5.33-19.26,6.07-3.8.42-3.84,6.42,0,6,7.89-.87,15.3-3.12,22.28-6.89,3.4-1.84.37-7.02-3.03-5.18h0Z"/>
        <path class="cls-5" d="M357.64,217.05c-12.24,6.37-25.22,10.77-38.79,13.27-3.79.7-2.19,6.48,1.6,5.79,14.07-2.59,27.53-7.27,40.22-13.87,3.43-1.78.4-6.96-3.03-5.18h0Z"/>
      </g>
    </g>
    <g>
      <path class="cls-1" d="M122.91,241.29v150.66c0,18.41,54.18,33.33,121.01,33.33s121.01-14.92,121.01-33.33v-150.66c-38.75,13.67-79.35,20.61-121.01,20.61s-82.26-6.94-121.01-20.61Z"/>
      <g class="cls-6">
        <path class="cls-5" d="M179.69,284.54c2.85,7.73,5.91,15.37,9.15,22.95,1.51,3.54,6.68.49,5.18-3.03-3.04-7.1-5.88-14.27-8.55-21.51-1.32-3.59-7.13-2.04-5.79,1.6h0Z"/>
        <path class="cls-5" d="M209.69,298.84c.27,8.3,2.29,16.16,6.02,23.58,1.74,3.45,6.91.42,5.18-3.03-3.25-6.46-4.97-13.32-5.2-20.55-.12-3.85-6.12-3.87-6,0h0Z"/>
        <path class="cls-5" d="M297,277.44c.77,8-.14,15.67-2.77,23.26-1.27,3.66,4.53,5.23,5.79,1.6,2.79-8.06,3.8-16.37,2.98-24.86-.37-3.81-6.37-3.85-6,0h0Z"/>
        <path class="cls-5" d="M271.44,303.68c-.82,6.57-3.66,12.59-8.07,17.5-2.57,2.87,1.66,7.13,4.24,4.24,5.56-6.21,8.79-13.5,9.83-21.75.48-3.82-5.52-3.79-6,0h0Z"/>
        <path class="cls-5" d="M312.19,331.48c.34,3.24-1.34,6.37-4.55,7.37-3.68,1.14-2.11,6.94,1.6,5.79,5.57-1.73,9.58-7.25,8.96-13.16-.17-1.62-1.26-2.98-3-3-1.49-.02-3.17,1.39-3,3h0Z"/>
        <path class="cls-5" d="M276.42,368.45c-3.13,4.86-8.24,8.01-14.02,8.5-3.82.32-3.85,6.33,0,6,7.98-.67,14.85-4.72,19.2-11.47,2.1-3.25-3.09-6.27-5.18-3.03h0Z"/>
        <path class="cls-5" d="M163.72,323.83c3.49,6.6,6.76,15.91,15.31,16.77,3.84.38,3.81-5.62,0-6-2.63-.26-4.32-3.07-5.51-5.13-1.64-2.83-3.09-5.78-4.62-8.67-1.81-3.41-6.99-.39-5.18,3.03h0Z"/>
        <path class="cls-5" d="M185.24,366.83c7.41,5.04,15.67,8.35,24.52,9.77,3.78.61,5.4-5.17,1.6-5.79-8.41-1.36-16.04-4.37-23.08-9.17-3.2-2.18-6.21,3.02-3.03,5.18h0Z"/>
        <path class="cls-5" d="M237.2,367.26c.39,7.49.46,14.97.24,22.47-.12,3.86,5.88,3.86,6,0,.23-7.49.15-14.98-.24-22.47-.2-3.84-6.2-3.87-6,0h0Z"/>
      </g>
    </g>
  </g>
  <g id="mouth">
    <path class="cls-4" d="M260.45,201.81c-4.65.52-1.46,6.16-8.2,6.3-4.21,0-4.49-.86-4.71-1.56-.42-1.32-.38-4.24-.21-5.89,0-.08,0-.15,0-.23,3.4-1.55,6.92-4.87,7.27-7.67-2.14-6.09-17.58-5.7-20.32,0-.92,1.6,3,5.84,6.64,7.67,0,.08,0,.15,0,.23.17,1.65.21,4.57-.21,5.89-.22.7-.5,1.56-4.71,1.56-6.74-.14-3.55-5.78-8.2-6.3-7.83,2.48,1.01,12.94,8.2,12.3,3.7.36,6.33-.63,8.12-2.38,1.78,1.75,4.42,2.74,8.12,2.38,7.19.64,16.03-9.82,8.2-12.3Z"/>
  </g>
  <g id="ear-out">
    <path class="cls-1" d="M201.52,89.08h.01s-40.49-39.67-55.82-28.97c-15.33,10.69-6.21,80.76-6.21,80.76h0c13.97-23.62,35.84-42.07,62.01-51.78Z"/>
    <path class="cls-1" d="M349.58,143.02h0s12.14-79-9.6-82.92c-21.74-3.92-49.83,30.47-49.83,30.47h0c25.25,10.37,46.19,28.98,59.42,52.45Z"/>
  </g>
  <g id="ear-in">
    <path class="cls-3" d="M341.34,130.35c2-12.71,7.35-52.48-2.96-57.41-10.07-4.81-27.89,16.64-34.03,24.58,14.5,8.31,27.09,19.52,36.99,32.83Z"/>
    <path class="cls-3" d="M186.56,95.82c-8.19-8.43-28.37-27.8-36.38-22.89-8.34,5.12-4.66,43.18-3.08,56.62,10.5-13.89,23.97-25.44,39.46-33.73Z"/>
  </g>
</svg>