<?xml version="1.0" encoding="UTF-8"?>
<svg xmlns="http://www.w3.org/2000/svg" xmlns:xlink="http://www.w3.org/1999/xlink" viewBox="0 0 500 500">
  <defs>
    <style>
      .cls-1 {
        fill: #5a5650;
      }

      .cls-2 {
        clip-path: url(#clippath-4);
      }

      .cls-3 {
        clip-path: url(#clippath-1);
      }

      .cls-4 {
        clip-path: url(#clippath-3);
      }

      .cls-5 {
        fill: #ada394;
      }

      .cls-6 {
        clip-path: url(#clippath-2);
      }

      .cls-7 {
        fill: #a19484;
      }

      .cls-8 {
        clip-path: url(#clippath);
      }
    </style>
    <clipPath id="clippath">
      <path class="cls-7" d="M210.59,463.94c13.22.08,17.71-16.57,18.25-38.93-15.97-.55-30.97-1.95-44.38-4.04,3.21,31.47,10.81,41.37,26.13,42.97Z"/>
    </clipPath>
    <clipPath id="clippath-1">
      <path class="cls-7" d="M280.81,463.94c15.41-1.61,23.01-11.61,26.19-43.56-13.33,2.25-28.37,3.8-44.45,4.49.52,22.43,5.01,39.15,18.25,39.07Z"/>
    </clipPath>
    <clipPath id="clippath-2">
      <path class="cls-7" d="M406.88,232.29c-29.9,11.54-41.26,49.48-29.51,85.36,6.27,25.97,6.07,31.24-12.45,40.32v31.51c8.98-1.54,29.64-8.46,43.12-32.07,10.56-19.01-8.5-57.81-4.96-77.79,4.73-14.72,12.88-18.68,13.39-18.91,18.47-6.42,8.96-34.5-9.6-28.42Z"/>
    </clipPath>
    <clipPath id="clippath-3">
      <path class="cls-7" d="M243.92,81.49c-66.83,0-121.01,53.78-121.01,120.12v26.87c37.75,13.85,78.51,21.42,121.01,21.42s83.26-7.57,121.01-21.42v-26.87c0-66.34-54.18-120.12-121.01-120.12Z"/>
    </clipPath>
    <clipPath id="clippath-4">
      <path class="cls-7" d="M122.91,241.29v150.66c0,18.41,54.18,33.33,121.01,33.33s121.01-14.92,121.01-33.33v-150.66c-38.75,13.67-79.35,20.61-121.01,20.61s-82.26-6.94-121.01-20.61Z"/>
    </clipPath>
  </defs>
  <g id="leg_and_tail">
    <g>
      <path class="cls-7" d="M210.59,463.94c13.22.08,17.71-16.57,18.25-38.93-15.97-.55-30.97-1.95-44.38-4.04,3.21,31.47,10.81,41.37,26.13,42.97Z"/>
      <g class="cls-8">
        <path class="cls-1" d="M172.25,444.43c13.44,2.35,26.52,5.09,40.2,3.24,3.24-.44,4.94-4.55,4.19-7.38-.92-3.48-4.18-4.62-7.38-4.19-11.32,1.53-22.74-1.3-33.82-3.24-7.55-1.32-10.8,10.24-3.19,11.57h0Z"/>
      </g>
    </g>
    <g>
      <path class="cls-7" d="M280.81,463.94c15.41-1.61,23.01-11.61,26.19-43.56-13.33,2.25-28.37,3.8-44.45,4.49.52,22.43,5.01,39.15,18.25,39.07Z"/>
      <g class="cls-3">
        <path class="cls-1" d="M308.07,433.72c-7.46,5.11-15.63,7.17-24.62,6.29-7.68-.75-7.63,11.26,0,12,10.84,1.06,21.7-1.78,30.68-7.93,6.33-4.34.34-14.74-6.06-10.36h0Z"/>
      </g>
    </g>
    <g>
      <path class="cls-7" d="M406.88,232.29c-29.9,11.54-41.26,49.48-29.51,85.36,6.27,25.97,6.07,31.24-12.45,40.32v31.51c8.98-1.54,29.64-8.46,43.12-32.07,10.56-19.01-8.5-57.81-4.96-77.79,4.73-14.72,12.88-18.68,13.39-18.91,18.47-6.42,8.96-34.5-9.6-28.42Z"/>
      <g class="cls-6">
        <path class="cls-1" d="M374.87,255.81c3.75.08,7.45.84,10.86,2.44,2.93,1.38,6.47.82,8.21-2.15,1.52-2.61.79-6.82-2.15-8.21-5.38-2.53-10.95-3.95-16.91-4.08-7.73-.17-7.72,11.83,0,12h0Z"/>
        <path class="cls-1" d="M416.55,272.53c-6.18.72-12.16.42-18.19-1.12-7.49-1.92-10.68,9.65-3.19,11.57,7.02,1.8,14.18,2.39,21.38,1.55,3.22-.37,6-2.49,6-6,0-2.95-2.76-6.38-6-6h0Z"/>
        <path class="cls-1" d="M368.45,302.55c4.11-.01,8.22.19,12.29.8,3.2.48,6.45-.8,7.38-4.19.78-2.83-.97-6.9-4.19-7.38-5.14-.77-10.27-1.25-15.48-1.23-7.72.02-7.74,12.02,0,12h0Z"/>
        <path class="cls-1" d="M410.11,305.71c-4.34,2.27-8.96,3.41-13.85,3.51-7.71.15-7.74,12.15,0,12,7.03-.14,13.68-1.89,19.9-5.15,6.84-3.58.78-13.94-6.06-10.36h0Z"/>
        <path class="cls-1" d="M365.77,324.21c1.57,8.33,10.01,11.67,17.33,13.56,9.69,2.5,19.77,3.23,29.72,2.3,7.62-.71,7.7-12.72,0-12-7,.65-14.05.59-20.99-.66-3.82-.69-13.58-1.63-14.48-6.4-1.43-7.58-13-4.37-11.57,3.19h0Z"/>
        <path class="cls-1" d="M411.75,354.11c-6.2,1.7-12.39,1.13-18.1-1.89-6.82-3.6-12.9,6.75-6.06,10.36,8.53,4.51,18.02,5.65,27.35,3.1,7.44-2.04,4.28-13.62-3.19-11.57h0Z"/>
        <path class="cls-1" d="M357.48,349.42c3.35,10.04,6.55,20.88,11.65,30.19,4.73,8.62,15.1,13.45,23.6,17.56,6.92,3.34,13.02-7,6.06-10.36-7.05-3.4-16.4-7.19-19.97-14.57-4-8.27-6.87-17.3-9.77-26-2.43-7.29-14.03-4.16-11.57,3.19h0Z"/>
      </g>
    </g>
  </g>
  <g id="body">
    <g>
      <path class="cls-7" d="M243.92,81.49c-66.83,0-121.01,53.78-121.01,120.12v26.87c37.75,13.85,78.51,21.42,121.01,21.42s83.26-7.57,121.01-21.42v-26.87c0-66.34-54.18-120.12-121.01-120.12Z"/>
      <g class="cls-4">
        <path class="cls-1" d="M241.41,78.49c2.3,2.65,1.59,9.48,1.78,12.75.31,5.1.46,10.2.61,15.3.23,7.7,12.23,7.74,12,0-.21-7.02-.42-14.04-1.03-21.03-.5-5.77-.95-10.99-4.88-15.51-5.08-5.84-13.53,2.68-8.49,8.49h0Z"/>
        <path class="cls-1" d="M215.32,79.29l1.99,19.26c.33,3.22,2.52,6,6,6,2.99,0,6.33-2.76,6-6l-1.99-19.26c-.33-3.22-2.52-6-6-6-2.99,0-6.33,2.76-6,6h0Z"/>
        <path class="cls-1" d="M268.45,76.59c-1.18,7.63-1.89,15.27-1.97,23s11.93,7.73,12,0c.06-6.64.52-13.25,1.54-19.81.5-3.23-.82-6.41-4.19-7.38-2.84-.82-6.88.99-7.38,4.19h0Z"/>
        <path class="cls-1" d="M110.2,186.21c10.63,2.47,20.49,6.42,31.56,4.36,7.58-1.41,4.37-12.98-3.19-11.57-8.45,1.57-17.09-2.48-25.18-4.36-7.51-1.74-10.72,9.82-3.19,11.57h0Z"/>
        <path class="cls-1" d="M112.9,212.04c7.22-.63,14.38,2.31,21.56,3.03s14.19.13,21.19-1.2c7.58-1.44,4.37-13.01-3.19-11.57-6.56,1.25-13.34,1.49-19.96.53s-12.84-3.38-19.6-2.79c-7.64.66-7.71,12.67,0,12h0Z"/>
        <path class="cls-1" d="M365.76,168.56c-9.99,2.81-19.98,5.62-29.98,8.42-7.42,2.09-4.27,13.67,3.19,11.57,9.99-2.81,19.98-5.62,29.98-8.42,7.42-2.09,4.27-13.67-3.19-11.57h0Z"/>
        <path class="cls-1" d="M368.88,196c-13.14,3.28-26.45,4.81-39.99,4.64-7.72-.09-7.73,11.91,0,12,14.56.18,29.05-1.54,43.18-5.07,7.49-1.87,4.32-13.45-3.19-11.57h0Z"/>
      </g>
    </g>
    <g>
      <path class="cls-7" d="M122.91,241.29v150.66c0,18.41,54.18,33.33,121.01,33.33s121.01-14.92,121.01-33.33v-150.66c-38.75,13.67-79.35,20.61-121.01,20.61s-82.26-6.94-121.01-20.61Z"/>
      <g class="cls-2">
        <path class="cls-1" d="M101.21,286.41c19.67,6.97,40.58,9.87,61.4,8.52,7.67-.5,7.72-12.5,0-12-19.88,1.29-39.44-1.43-58.21-8.09-7.29-2.59-10.43,9-3.19,11.57h0Z"/>
        <path class="cls-1" d="M111.28,316.32c16.35,1.98,32.75,3.23,49.21,3.75,7.72.25,7.72-11.75,0-12-16.46-.52-32.87-1.77-49.21-3.75-7.65-.93-7.58,11.08,0,12h0Z"/>
        <path class="cls-1" d="M109.68,344.59c13.93,3.22,28.08,5.93,42.21,2.3,7.47-1.92,4.31-13.49-3.19-11.57-11.97,3.07-24.06.42-35.83-2.3-7.52-1.74-10.72,9.83-3.19,11.57h0Z"/>
        <path class="cls-1" d="M110.82,372.93c12.9,2.23,26.49,6.07,39.54,3.17,7.54-1.67,4.35-13.24-3.19-11.57-10.68,2.37-22.61-1.35-33.16-3.17-7.55-1.31-10.8,10.25-3.19,11.57h0Z"/>
        <path class="cls-1" d="M116.1,399.12c7.13.23,14.25.46,21.38.69,7.72.25,7.72-11.75,0-12-7.13-.23-14.25-.46-21.38-.69-7.72-.25-7.72,11.75,0,12h0Z"/>
        <path class="cls-1" d="M378.58,274.28c-11.75,2.59-22.98,7-34.65,9.88-11.63,2.87-23.49,3.88-35.44,3.4-7.72-.31-7.71,11.69,0,12,12.35.5,24.76-.6,36.82-3.39s24.11-7.59,36.47-10.32c7.54-1.66,4.35-13.24-3.19-11.57h0Z"/>
        <path class="cls-1" d="M374.43,302.39c-7.11,1.3-13.75,4.55-20.96,5.78s-14.59,1.29-21.88.65c-7.69-.68-7.64,11.32,0,12s15.54.42,23.28-.78,15.04-4.67,22.75-6.07c7.59-1.39,4.37-12.95-3.19-11.57h0Z"/>
        <path class="cls-1" d="M372.22,328.8c-12.59,5.99-26.19,9.09-40.12,9.35-7.71.14-7.74,12.15,0,12,16.12-.3,31.63-4.06,46.17-10.99,6.97-3.32.89-13.67-6.06-10.36h0Z"/>
        <path class="cls-1" d="M371.78,350.42c-12.22,8.17-26.06,13.16-40.75,14.24-7.66.56-7.72,12.57,0,12,16.78-1.23,32.79-6.51,46.81-15.87,6.39-4.27.39-14.67-6.06-10.36h0Z"/>
        <path class="cls-1" d="M370.05,378.66c-12.67,1.85-25.31,3.89-37.92,6.12-7.59,1.34-4.37,12.91,3.19,11.57,12.61-2.23,25.25-4.27,37.92-6.12,7.61-1.11,4.38-12.68-3.19-11.57h0Z"/>
      </g>
    </g>
  </g>
  <g id="mouth">
    <path class="cls-1" d="M260.45,201.81c-4.65.52-1.46,6.16-8.2,6.3-4.21,0-4.49-.86-4.71-1.56-.42-1.32-.38-4.24-.21-5.89,0-.08,0-.15,0-.23,3.4-1.55,6.92-4.87,7.27-7.67-2.14-6.09-17.58-5.7-20.32,0-.92,1.6,3,5.84,6.64,7.67,0,.08,0,.15,0,.23.17,1.65.21,4.57-.21,5.89-.22.7-.5,1.56-4.71,1.56-6.74-.14-3.55-5.78-8.2-6.3-7.83,2.48,1.01,12.94,8.2,12.3,3.7.36,6.33-.63,8.12-2.38,1.78,1.75,4.42,2.74,8.12,2.38,7.19.64,16.03-9.82,8.2-12.3Z"/>
  </g>
  <g id="ear-out">
    <path class="cls-1" d="M201.52,89.08h.01s-40.49-39.67-55.82-28.97c-15.33,10.69-6.21,80.76-6.21,80.76h0c13.97-23.62,35.84-42.07,62.01-51.78Z"/>
    <path class="cls-1" d="M349.58,143.02h0s12.14-79-9.6-82.92c-21.74-3.92-49.83,30.47-49.83,30.47h0c25.25,10.37,46.19,28.98,59.42,52.45Z"/>
  </g>
  <g id="ear-in">
    <path class="cls-5" d="M341.34,130.35c2-12.71,7.35-52.48-2.96-57.41-10.07-4.81-27.89,16.64-34.03,24.58,14.5,8.31,27.09,19.52,36.99,32.83Z"/>
    <path class="cls-5" d="M186.56,95.82c-8.19-8.43-28.37-27.8-36.38-22.89-8.34,5.12-4.66,43.18-3.08,56.62,10.5-13.89,23.97-25.44,39.46-33.73Z"/>
  </g>
</svg>