<?xml version="1.0" encoding="UTF-8"?>
<svg xmlns="http://www.w3.org/2000/svg" xmlns:xlink="http://www.w3.org/1999/xlink" viewBox="0 0 500 500">
  <defs>
    <style>
      .cls-1 {
        fill: #f3b499;
      }

      .cls-2 {
        clip-path: url(#clippath-1);
      }

      .cls-3 {
        fill: #d1b899;
      }

      .cls-4 {
        fill: #665243;
      }

      .cls-5 {
        clip-path: url(#clippath-2);
      }

      .cls-6 {
        fill: #46362d;
      }

      .cls-7 {
        clip-path: url(#clippath);
      }
    </style>
    <clipPath id="clippath">
      <path class="cls-4" d="M406.88,232.29c-29.9,11.54-41.26,49.48-29.51,85.36,6.27,25.97,6.07,31.24-12.45,40.32v31.51c8.98-1.54,29.64-8.46,43.12-32.07,10.56-19.01-8.5-57.81-4.96-77.79,4.73-14.72,12.88-18.68,13.39-18.91,18.47-6.42,8.96-34.5-9.6-28.42Z"/>
    </clipPath>
    <clipPath id="clippath-1">
      <path class="cls-4" d="M243.92,81.49c-66.83,0-121.01,53.78-121.01,120.12v26.87c37.75,13.85,78.51,21.42,121.01,21.42s83.26-7.57,121.01-21.42v-26.87c0-66.34-54.18-120.12-121.01-120.12Z"/>
    </clipPath>
    <clipPath id="clippath-2">
      <path class="cls-4" d="M122.91,241.29v150.66c0,18.41,54.18,33.33,121.01,33.33s121.01-14.92,121.01-33.33v-150.66c-38.75,13.67-79.35,20.61-121.01,20.61s-82.26-6.94-121.01-20.61Z"/>
    </clipPath>
  </defs>
  <g id="leg_and_tail">
    <path class="cls-4" d="M210.59,463.94c13.22.08,17.71-16.57,18.25-38.93-15.97-.55-30.97-1.95-44.38-4.04,3.21,31.47,10.81,41.37,26.13,42.97Z"/>
    <path class="cls-4" d="M280.81,463.94c15.41-1.61,23.01-11.61,26.19-43.56-13.33,2.25-28.37,3.8-44.45,4.49.52,22.43,5.01,39.15,18.25,39.07Z"/>
    <g>
      <path class="cls-4" d="M406.88,232.29c-29.9,11.54-41.26,49.48-29.51,85.36,6.27,25.97,6.07,31.24-12.45,40.32v31.51c8.98-1.54,29.64-8.46,43.12-32.07,10.56-19.01-8.5-57.81-4.96-77.79,4.73-14.72,12.88-18.68,13.39-18.91,18.47-6.42,8.96-34.5-9.6-28.42Z"/>
      <g class="cls-7">
        <ellipse class="cls-3" cx="416.13" cy="253.4" rx="38.76" ry="35.82"/>
        <path class="cls-6" d="M359.19,303.87c2.61.63,4.38,2.63,6.45,4.24,2.27,1.77,4.63,3.15,7.28,4.28,5.29,2.23,10.97,3.05,16.67,2.32,7.55-.97,7.65-12.98,0-12-5.19.67-10.24.06-14.76-2.72s-7.31-6.44-12.46-7.68c-7.5-1.81-10.71,9.76-3.19,11.57h0Z"/>
        <path class="cls-6" d="M396.14,334.86c7.74,1.56,15.57,2.48,23.46,2.68s7.72-11.81,0-12c-6.84-.17-13.56-.9-20.27-2.25-7.54-1.52-10.77,10.04-3.19,11.57h0Z"/>
        <path class="cls-6" d="M362.41,351.28c4.77.68,8.97,4.75,13.52,6.46,5.05,1.9,10.51,2.54,15.88,2.14,7.66-.56,7.72-12.57,0-12-5.01.37-9.84-.22-14.38-2.51-4-2.01-7.25-5.02-11.83-5.67-3.23-.46-6.41.8-7.38,4.19-.81,2.81.99,6.92,4.19,7.38h0Z"/>
        <path class="cls-6" d="M367.4,376.16c11.83,10.24,26.89,15.65,42.57,14.62,7.67-.51,7.72-12.51,0-12-12.46.82-24.59-2.88-34.09-11.1-5.81-5.03-14.34,3.42-8.49,8.49h0Z"/>
      </g>
    </g>
  </g>
  <g id="body">
    <g>
      <path class="cls-4" d="M243.92,81.49c-66.83,0-121.01,53.78-121.01,120.12v26.87c37.75,13.85,78.51,21.42,121.01,21.42s83.26-7.57,121.01-21.42v-26.87c0-66.34-54.18-120.12-121.01-120.12Z"/>
      <g class="cls-2">
        <path class="cls-3" d="M227.37,181.27l-11.9,20.62c-7.45,12.91,1.86,29.05,16.77,29.05h23.81c14.91,0,24.22-16.14,16.77-29.05l-11.9-20.62c-7.45-12.91-26.09-12.91-33.54,0Z"/>
        <path class="cls-6" d="M239.11,74.78c1.56,14.05,1.92,28.15,1.08,42.26-.46,7.71,11.54,7.69,12,0,.84-14.11.48-28.21-1.08-42.26-.84-7.59-12.85-7.68-12,0h0Z"/>
        <path class="cls-6" d="M212.07,85.38c1.79,5.31,2.6,10.56,2.45,16.16-.21,7.72,11.8,7.72,12,0,.17-6.57-.78-13.12-2.88-19.35-2.45-7.28-14.05-4.16-11.57,3.19h0Z"/>
        <path class="cls-6" d="M268.28,83.26c1.52,6.11,1.56,12.18.11,18.31-1.78,7.51,9.79,10.71,11.57,3.19,1.95-8.23,1.93-16.47-.11-24.69-1.86-7.49-13.43-4.32-11.57,3.19h0Z"/>
        <path class="cls-6" d="M152.84,181.51c-10.71,2.87-21.6,5.38-32.16,8.74-9.45,3.01-17.87,9.45-27.76,10.82-7.62,1.06-4.37,12.62,3.19,11.57,10-1.39,18.27-7.81,27.76-10.82,10.57-3.36,21.45-5.87,32.16-8.74,7.45-1.99,4.29-13.57-3.19-11.57h0Z"/>
        <path class="cls-6" d="M160.68,204.28c-21.46,6.1-43.16,11.31-65.05,15.6-7.57,1.48-4.37,13.05,3.19,11.57,21.9-4.29,43.59-9.49,65.05-15.6,7.42-2.11,4.26-13.69-3.19-11.57h0Z"/>
        <path class="cls-6" d="M338.03,186.86c11.6,7.86,23.51,15.22,35.72,22.09,6.74,3.79,12.79-6.57,6.06-10.36-12.21-6.87-24.12-14.24-35.72-22.09-6.41-4.34-12.42,6.05-6.06,10.36h0Z"/>
        <path class="cls-6" d="M323.14,207.95c17.3,9.28,32.52,21.6,47.62,34.03,5.92,4.87,14.45-3.57,8.49-8.49-15.87-13.06-31.87-26.15-50.05-35.91-6.8-3.65-12.87,6.71-6.06,10.36h0Z"/>
      </g>
    </g>
    <g>
      <path class="cls-4" d="M122.91,241.29v150.66c0,18.41,54.18,33.33,121.01,33.33s121.01-14.92,121.01-33.33v-150.66c-38.75,13.67-79.35,20.61-121.01,20.61s-82.26-6.94-121.01-20.61Z"/>
      <g class="cls-5">
        <path class="cls-3" d="M232.38,350.71l-112.3-83.87c-15.15-11.32-7.15-35.41,11.76-35.41h224.61c18.91,0,26.91,24.09,11.76,35.41l-112.3,83.87c-6.98,5.21-16.55,5.21-23.52,0Z"/>
        <path class="cls-6" d="M113.33,326.26c7.7,2.38,14.88,6.61,22.44,9.48,7.64,2.9,15.47,5.19,23.43,6.99,7.52,1.7,10.73-9.87,3.19-11.57-7.97-1.8-15.79-4.1-23.43-6.99-7.59-2.88-14.69-7.08-22.44-9.48-7.39-2.29-10.56,9.29-3.19,11.57h0Z"/>
        <path class="cls-6" d="M112.7,366.84c17.71,2.84,34.85,9.46,53.02,8.77,7.7-.29,7.74-12.29,0-12-17.06.65-33.17-5.67-49.83-8.34-7.55-1.21-10.81,10.35-3.19,11.57h0Z"/>
        <path class="cls-6" d="M366.69,313.63c-13,6.09-26.97,10.24-41.21,12.11-3.24.43-5.96,2.45-6,6-.03,2.92,2.79,6.42,6,6,16.5-2.17,32.19-6.68,47.27-13.75,6.99-3.27.9-13.62-6.06-10.36h0Z"/>
        <path class="cls-6" d="M366.47,344.77c-17.79,8.66-36.56,14.88-55.95,18.77-7.57,1.52-4.36,13.09,3.19,11.57,20.42-4.1,40.1-10.87,58.81-19.98,6.94-3.38.87-13.73-6.06-10.36h0Z"/>
      </g>
    </g>
  </g>
  <g id="mouth">
    <path class="cls-6" d="M260.45,201.81c-4.65.52-1.46,6.16-8.2,6.3-4.21,0-4.49-.86-4.71-1.56-.42-1.32-.38-4.24-.21-5.89,0-.08,0-.15,0-.23,3.4-1.55,6.92-4.87,7.27-7.67-2.14-6.09-17.58-5.7-20.32,0-.92,1.6,3,5.84,6.64,7.67,0,.08,0,.15,0,.23.17,1.65.21,4.57-.21,5.89-.22.7-.5,1.56-4.71,1.56-6.74-.14-3.55-5.78-8.2-6.3-7.83,2.48,1.01,12.94,8.2,12.3,3.7.36,6.33-.63,8.12-2.38,1.78,1.75,4.42,2.74,8.12,2.38,7.19.64,16.03-9.82,8.2-12.3Z"/>
  </g>
  <g id="ear-out">
    <path class="cls-4" d="M201.52,89.08h.01s-40.49-39.67-55.82-28.97c-15.33,10.69-6.21,80.76-6.21,80.76h0c13.97-23.62,35.84-42.07,62.01-51.78Z"/>
    <path class="cls-4" d="M349.58,143.02h0s12.14-79-9.6-82.92c-21.74-3.92-49.83,30.47-49.83,30.47h0c25.25,10.37,46.19,28.98,59.42,52.45Z"/>
  </g>
  <g id="ear-in">
    <path class="cls-1" d="M341.34,130.35c2-12.71,7.35-52.48-2.96-57.41-10.07-4.81-27.89,16.64-34.03,24.58,14.5,8.31,27.09,19.52,36.99,32.83Z"/>
    <path class="cls-1" d="M186.56,95.82c-8.19-8.43-28.37-27.8-36.38-22.89-8.34,5.12-4.66,43.18-3.08,56.62,10.5-13.89,23.97-25.44,39.46-33.73Z"/>
  </g>
</svg>